
<svg version="1.1" id="Capa_1" xmlns="http://www.w3.org/2000/svg" xmlns:xlink="http://www.w3.org/1999/xlink" x="0px" y="0px"
	 viewBox="0 0 512 512" style="enable-background:new 0 0 512 512;" xml:space="preserve" width="52.25" height="52.25">
<g>
	<g>
		<path d="M256.202,267.242c-58.037,0-105.086,47.049-105.086,105.086s47.049,105.086,105.086,105.086
			c58.037,0,105.086-47.049,105.086-105.086C361.288,314.291,314.239,267.242,256.202,267.242z M304.186,399.214l-21.213,21.213
			L256,393.453l-26.974,26.974l-21.213-21.213l26.974-26.974l-26.974-26.974l21.213-21.213L256,351.026l26.974-26.974l21.213,21.213
			l-26.974,26.974L304.186,399.214z"/>
	</g>
</g>
<g>
	<g>
		<path d="M384.4,139.995c-6.543-27.372-21.432-52.236-42.789-71.076c-25.098-22.141-57.372-34.334-90.877-34.334
			c-75.77,0-137.414,61.649-137.414,137.425c0,1.175,0.015,2.351,0.045,3.529c-1.162-0.037-2.325-0.056-3.486-0.056
			C49.291,175.482,0,224.774,0,285.362s49.291,109.88,109.879,109.88h13.063c-1.284-7.524-1.942-15.211-1.942-23
			c0-36.06,14.042-69.961,39.541-95.459c25.499-25.498,59.4-39.541,95.459-39.541c36.06,0,69.961,14.043,95.459,39.541
			S391,336.183,391,372.242c0,7.756-0.654,15.411-1.927,22.905C457.276,392.669,512,336.417,512,267.614
			C512,197.248,454.764,140.002,384.4,139.995z"/>
	</g>
</g>
<g>
</g>
<g>
</g>
<g>
</g>
<g>
</g>
<g>
</g>
<g>
</g>
<g>
</g>
<g>
</g>
<g>
</g>
<g>
</g>
<g>
</g>
<g>
</g>
<g>
</g>
<g>
</g>
<g>
</g>
</svg>
